<?xml version="1.0" standalone="no"?>
<!DOCTYPE svg PUBLIC "-//W3C//DTD SVG 20010904//EN"
 "http://www.w3.org/TR/2001/REC-SVG-20010904/DTD/svg10.dtd">
<svg version="1.0" xmlns="http://www.w3.org/2000/svg"
 width="511.000000pt" height="511.000000pt" viewBox="0 0 511.000000 511.000000"
 preserveAspectRatio="xMidYMid meet">
<metadata>
Created by potrace 1.11, written by Peter Selinger 2001-2013
</metadata>
<g transform="translate(0.000000,511.000000) scale(0.100000,-0.100000)"
fill="#000000" stroke="none">
<path d="M2988 4555 c-2 -1 -37 -5 -78 -9 -149 -12 -289 -42 -448 -96 -77 -26
-98 -29 -130 -21 -35 9 -73 14 -187 28 -101 11 -382 5 -460 -11 -11 -2 -40 -7
-65 -12 -25 -4 -47 -8 -50 -9 -3 -1 -25 -5 -50 -9 -115 -21 -365 -117 -495
-189 -443 -247 -763 -630 -920 -1102 -27 -80 -60 -209 -70 -275 -4 -25 -9 -54
-11 -65 -10 -48 -18 -179 -17 -285 0 -150 7 -218 39 -395 3 -16 12 -55 20 -85
8 -30 16 -62 19 -70 12 -50 73 -208 108 -280 216 -450 587 -797 1047 -980 108
-43 327 -103 415 -115 28 -3 75 -9 106 -14 93 -12 385 -5 489 13 117 20 128
22 214 44 69 18 71 18 152 -4 46 -12 102 -25 126 -28 24 -3 54 -8 68 -11 117
-25 428 -25 588 -1 216 33 404 92 596 187 98 49 306 175 326 198 3 4 30 26 60
50 78 63 226 213 292 296 234 296 380 644 424 1015 10 82 10 405 0 485 -4 33
-16 101 -27 150 -11 50 -22 99 -24 110 -12 52 -72 220 -111 310 -130 294 -362
584 -629 785 -132 99 -211 144 -430 245 -99 46 -347 113 -480 130 -27 4 -61 9
-75 12 -27 5 -327 12 -332 8z m362 -180 c421 -62 799 -256 1083 -555 197 -208
339 -448 426 -721 33 -106 35 -115 56 -239 21 -130 26 -185 25 -305 0 -108 -2
-141 -14 -240 -15 -126 -58 -302 -95 -390 -5 -11 -19 -45 -31 -75 -145 -363
-448 -701 -807 -901 -158 -88 -391 -172 -538 -195 -22 -3 -42 -7 -46 -9 -39
-25 -562 -25 -586 -1 -2 2 31 23 74 46 357 196 643 496 823 865 51 105 120
287 134 357 3 12 12 55 20 93 33 152 41 237 40 425 -1 448 -150 860 -441 1221
-94 117 -289 295 -408 374 -102 67 -237 141 -328 180 -74 31 -73 37 10 50 21
3 50 8 63 10 14 3 54 8 90 11 36 4 67 8 69 10 6 5 333 -4 381 -11z"/>
</g>
</svg>
