<?xml version="1.0" encoding="utf-8"?>
<!-- Generator: Adobe Illustrator 24.2.3, SVG Export Plug-In . SVG Version: 6.00 Build 0)  -->
<svg version="1.1" id="Layer_1" xmlns="http://www.w3.org/2000/svg" xmlns:xlink="http://www.w3.org/1999/xlink" x="0px" y="0px"
	 viewBox="0 0 156.89 60.9" enable-background="new 0 0 156.89 60.9" xml:space="preserve">
<g>
	<path fill="#030303" d="M156.79,39.6L156.79,39.6c-2.23,2.28-4.75,4.11-7.78,5.16c-1.65,0.57-3.35,0.86-5.09,0.68
		c-1.89-0.2-3.59-0.94-5.1-2.1c-1.94-1.47-3.42-3.33-4.6-5.45c-1.95-3.51-3.04-7.29-3.56-11.25c-0.35-2.63-0.4-5.27-0.21-7.91
		c0.24-3.24,0.9-6.38,2.25-9.36c0.92-2.04,2.13-3.88,3.82-5.38c1.89-1.67,4.08-2.46,6.61-2.16c1.36,0.16,2.52,0.86,3.56,1.71
		c1.46,1.2,2.52,2.68,2.96,4.55c0.12,0.52,0.17,1.04,0.14,1.57c-0.01,0.25-0.09,0.46-0.29,0.65c-0.29-0.15-0.37-0.42-0.42-0.7
		c-0.33-1.72-1.28-3.06-2.56-4.18c-1.15-1.01-2.49-1.64-4.03-1.73c-1.15-0.06-2.2,0.3-3.19,0.87c-1.56,0.91-2.74,2.21-3.73,3.7
		c-1.22,1.84-1.91,3.89-2.4,6.03c-0.62,2.71-0.79,5.47-0.68,8.24c0.16,3.89,0.88,7.69,2.37,11.31c0.83,2.01,1.92,3.87,3.39,5.48
		c1.4,1.53,3.07,2.61,5.14,3.01c1.39,0.26,2.75,0.22,4.11-0.24c2.25-0.76,4.21-2,6.01-3.5c0.4-0.34,0.79-0.69,1.16-1.06
		c0.5-0.49,1.33-0.4,1.71,0.19l0,0C156.46,37.9,157.14,38.6,156.79,39.6z"/>
</g>
<path d="M25.73,39.4c-0.11,0.46-0.45,0.67-0.78,0.88c-1.09,0.7-2.3,1.11-3.55,1.4c-3.55,0.8-7.04,0.72-10.47-0.58
	c-2.74-1.05-5.17-2.6-7.2-4.7c-2.21-2.29-3.59-5.01-3.71-8.26c-0.09-2.41,0.57-4.67,1.64-6.81c1.43-2.89,3.45-5.32,5.89-7.41
	c2.7-2.31,5.74-4.02,9.13-5.07c2.91-0.9,5.88-1.37,8.93-1.19c3.88,0.23,7.33,1.65,10.39,4.01c2.83,2.18,4.94,4.95,6.57,8.11
	c1.62,3.15,2.56,6.51,3.03,10.01c0.04,0.33,0.09,0.65,0.15,1.09c0.42-0.46,0.81-0.83,0.92-1.42c0.26-1.53,0.68-3.01,1.34-4.41
	c0.41-0.86,0.93-1.65,1.53-2.39c0.53-0.65,1.27-0.78,2.02-0.81c0.53-0.02,0.84,0.39,0.87,0.94c0.03,0.87-0.27,1.64-0.59,2.42
	c-0.71,1.7-1.73,3.22-2.78,4.73c-0.25,0.36-0.41,0.73-0.44,1.15c-0.1,1.86,0.03,3.7,0.68,5.47c0.11,0.29,0.24,0.57,0.4,0.84
	c0.34,0.59,0.42,0.6,0.89,0.07c0.29-0.33,0.54-0.7,0.76-1.08c0.88-1.46,1.51-3.04,2.14-4.62c1.03-2.58,2.07-5.16,3.39-7.61
	c0.12-0.21,0.24-0.42,0.36-0.63c0.32-0.59,0.81-0.87,1.48-0.97c0.8-0.12,1.42,0.3,1.62,1c0.23,0.81,0.36,1.63,0.47,2.46
	c0.33,2.46,0.56,4.94,1.12,7.37c0.28,1.22,0.62,2.43,1.15,3.56c0.26,0.01,0.25-0.19,0.3-0.32c0.48-1.17,0.74-2.4,0.96-3.64
	c0.54-3.03,0.95-6.09,1.58-9.1c0.16-0.75,0.27-1.52,0.55-2.24c0.32-0.81,1.32-1.13,2.07-0.68c0.29,0.17,0.41,0.44,0.52,0.74
	c0.39,1.04,0.56,2.13,0.79,3.21c0.47,2.24,0.94,4.49,1.54,6.7c0.03,0.13,0.03,0.27,0.23,0.42c0.03-0.38,0.07-0.7,0.09-1.03
	c0.17-2.61,0.61-5.16,1.59-7.59c0.3-0.74,0.63-1.46,1.07-2.12c1.01-1.52,2.97-2.1,4.66-1.39c1.17,0.49,2.08,1.31,2.85,2.3
	c1.27,1.62,2.03,3.5,2.66,5.44c0.54,1.66,0.88,3.36,0.89,5.18c0.34-0.15,0.5-0.42,0.69-0.63c0.74-0.79,1.41-1.63,2.04-2.52
	c0.18-0.26,0.26-0.53,0.28-0.86c0.15-2.01,0.46-3.98,1.24-5.85c0.44-1.06,0.97-2.08,1.83-2.88c0.6-0.56,1.36-0.62,2.1-0.61
	c0.65,0.01,1.03,0.54,1.05,1.22c0.03,0.83-0.16,1.62-0.43,2.39c-0.69,2.01-1.57,3.94-2.62,5.78c-0.51,0.89-0.7,1.75-0.59,2.75
	c0.15,1.41,0.31,2.8,0.81,4.14c0.24,0.64,0.52,1.26,1.08,1.72c0.69-0.47,1.16-1.09,1.59-1.77c0.76-1.23,1.27-2.57,1.75-3.92
	c1-2.85,1.97-5.7,3.1-8.5c0.21-0.53,0.45-1.05,0.7-1.57c0.17-0.36,0.42-0.61,0.85-0.63c0.22-0.01,0.43-0.09,0.65-0.13
	c0.74-0.12,1.23,0.25,1.3,0.99c0.13,1.38,0.1,2.77,0.16,4.15c0.12,2.86,0.26,5.72,0.92,8.51c0.22,0.9,0.47,1.79,0.9,2.65
	c0.31-0.17,0.38-0.46,0.49-0.7c0.6-1.31,0.95-2.7,1.32-4.08c0.67-2.49,1.47-4.94,2.56-7.29c0.05-0.1,0.1-0.2,0.14-0.3
	c0.32-1.01,1.17-1.22,2.07-1.33c0.38-0.04,1.01,0.4,1.16,0.82c0.23,0.64,0.43,1.3,0.62,1.95c0.6,2,1.36,3.93,2.67,5.58
	c1.73,2.18,3.66,4.18,5.88,5.88c0.4,0.31,0.83,0.58,1.28,0.82c0.78,0.4,1.57,0.71,2.46,0.34c0.1-0.04,0.24-0.08,0.31,0.02
	c0.09,0.13,0,0.24-0.1,0.34c-0.79,0.76-1.73,1.01-2.8,0.89c-1.27-0.14-2.44-0.61-3.53-1.24c-2.49-1.43-4.61-3.24-5.99-5.83
	c-0.91-1.7-1.69-3.44-2.19-5.31c-0.06-0.21-0.12-0.41-0.19-0.63c-0.25,0.2-0.27,0.48-0.36,0.72c-0.81,2.17-1.35,4.42-1.91,6.67
	c-0.4,1.61-0.91,3.18-1.72,4.64c-0.3,0.55-0.63,1.06-1.11,1.47c-0.65,0.54-1.17,0.52-1.84,0.03c-1.02-0.75-1.45-1.87-1.91-2.96
	c-0.68-1.62-0.97-3.34-1.17-5.07c-0.19-1.6-0.32-3.2-0.31-4.81c0-0.06,0.02-0.14-0.12-0.16c-0.15,0.16-0.18,0.4-0.25,0.62
	c-0.72,2.17-1.34,4.39-2.17,6.53c-0.54,1.38-1.16,2.72-1.99,3.95c-0.47,0.7-1,1.34-1.75,1.78c-1.13,0.66-1.97,0.52-2.87-0.18
	c-1.14-0.89-1.68-2.13-2.22-3.39c-0.43-1-0.61-2.06-0.76-3.13c-0.22-0.07-0.28,0.12-0.37,0.22c-1.14,1.27-2.37,2.43-3.71,3.49
	c-0.3,0.24-0.5,0.54-0.7,0.86c-1.14,1.85-2.72,3.17-4.81,3.82c-0.36,0.11-0.73,0.16-1.1,0.21c-0.52,0.07-0.91-0.14-1.21-0.52
	c-0.31-0.4-0.56-0.85-0.69-1.34c-0.13-0.51,0.01-0.79,0.54-1.07c1.19-0.63,2.34-1.33,3.44-2.11c0.67-0.47,1.31-0.97,1.97-1.45
	c0.3-0.22,0.49-0.49,0.61-0.84c0.54-1.5,0.53-3.03,0.28-4.57c-0.29-1.79-0.82-3.52-1.54-5.18c-0.42-0.96-1.02-1.81-1.76-2.55
	c-0.58-0.58-1.27-0.94-2.12-0.96c-0.42-0.01-0.77,0.12-1.09,0.4c-0.49,0.44-0.82,0.98-1.07,1.57c-0.81,1.95-1.2,4-1.41,6.09
	c-0.19,1.96-0.11,3.92-0.29,5.88c-0.08,0.84-0.27,1.65-0.7,2.39c-0.39,0.67-0.66,0.72-1.22,0.18c-0.47-0.46-0.7-1.07-0.93-1.66
	c-0.66-1.69-1.09-3.44-1.51-5.2c-0.5-2.1-0.92-4.22-1.28-6.35c-0.03-0.15-0.05-0.3-0.19-0.49c-0.12,0.65-0.25,1.25-0.34,1.86
	c-0.29,1.98-0.56,3.96-0.86,5.94c-0.28,1.9-0.6,3.79-1.35,5.57c-0.21,0.49-0.46,0.95-0.75,1.4c-0.14,0.23-0.32,0.42-0.54,0.57
	c-0.4,0.28-0.76,0.27-1.16-0.02c-0.47-0.35-0.83-0.77-1.12-1.29c-0.9-1.62-1.37-3.38-1.73-5.18c-0.44-2.23-0.63-4.49-0.89-6.74
	c-0.06-0.5-0.06-1.01-0.24-1.53c-0.24,0.2-0.31,0.46-0.42,0.68c-1.07,2.28-1.94,4.64-2.81,6.99c-0.66,1.78-1.36,3.54-2.3,5.2
	c-0.34,0.6-0.7,1.18-1.15,1.69c-0.4,0.45-0.86,0.81-1.47,0.97c-0.46,0.12-0.87,0.04-1.26-0.23c-0.57-0.4-1.03-0.88-1.38-1.49
	c-0.93-1.62-1.39-3.37-1.49-5.22c0-0.04-0.02-0.08-0.05-0.15c-0.35,0.17-0.41,0.46-0.41,0.8c0.04,1.37-0.02,2.73-0.11,4.1
	c-0.3,4.26-1.29,8.35-3.22,12.18c-1.3,2.57-2.96,4.85-5.11,6.77c-1.58,1.41-3.29,2.59-5.38,3.13c-0.71,0.18-1.41,0.29-2.16,0.18
	c-1.17-0.18-2.04-0.79-2.68-1.75c-0.51-0.77-0.83-1.62-0.84-2.54c0-0.7,0.18-1.39,0.44-2.05c0.57-1.43,1.41-2.7,2.3-3.93
	c2.06-2.82,4.38-5.42,6.7-8.01c2.41-2.7,4.83-5.38,7.14-8.17c0.38-0.46,0.56-0.88,0.51-1.53c-0.16-2.09-0.45-4.16-0.92-6.2
	c-0.86-3.66-2.38-7.01-4.79-9.92c-2.95-3.58-6.67-5.84-11.3-6.53c-3.69-0.54-7.26-0.03-10.71,1.32c-5.21,2.04-9.4,5.36-12.37,10.13
	c-0.99,1.59-1.61,3.32-1.85,5.19c-0.34,2.66,0.44,5.01,1.93,7.16c1.39,2.02,3.26,3.52,5.33,4.78c2.19,1.34,4.56,2.24,7.13,2.47
	c3,0.27,5.95,0.09,8.72-1.28c0.18-0.09,0.35-0.19,0.52-0.29C25.4,39.6,25.57,39.5,25.73,39.4z M43.23,37.37
	c-2.07,2.4-4.23,4.72-6.37,7.07c-2.21,2.42-4.43,4.85-6.4,7.48c-0.68,0.9-1.33,1.82-1.84,2.82c-0.3,0.59-0.56,1.21-0.49,1.89
	c0.18,1.7,1.51,2.47,3.08,2.04c1.01-0.28,1.91-0.79,2.77-1.38c1.67-1.14,3.09-2.56,4.33-4.15c3.67-4.71,4.99-10.19,5.25-16.02
	C43.34,37.11,43.31,37.27,43.23,37.37z"/>
</svg>
